#!OML:ASF H:\Terrain\Patient Classification 1\PLAYGROUND\JustinFriday\JustinFriday.ASF
:FULLY-SPECIFIED
:DEGREES
1940
root -8.20109 28.5492 -8.90612 312.806 84.0939 -4.00264
lowerback 17.872 1.76709 -0.407721
upperback 0.757852 2.74686 3.83455
thorax -9.44253 1.48049 3.69316
lowerneck -0.914889 -2.01703 -10.6978
upperneck 30.6503 -1.77123 4.94332
head 10.0523 -0.949856 3.57876
rclavicle 4.96962e-015 7.95139e-015
rhumerus 7.38266 11.1942 -71.5072
rradius 122.809
rwrist 33.1303
rhand 8.91087 -29.8024
rfingers 7.12502
rthumb 34.0926 -56.5655
lclavicle 4.96962e-015 7.95139e-015
lhumerus -6.7713 -5.54345 85.7891
lradius 129.122
lwrist -28.6619
lhand -0.0536432 -7.09687
lfingers 7.12502
lthumb 25.539 21.2113
rfemur -23.876 -12.194 23.8672
rtibia 77.4626
rfoot 8.27486 -18.2204
rtoes 34.0095
lfemur -16.4654 2.42746 -10.1654
ltibia 53.438
lfoot 15.5881 -2.81042
ltoes 4.59561
1941
root -8.16696 28.5517 -8.9328 313.469 84.2001 -3.37676
lowerback 17.7888 1.69339 -0.221791
upperback 0.577468 2.6755 3.73995
thorax -9.576 1.43478 3.50357
lowerneck -1.08491 -1.81597 -12.7831
upperneck 31.5972 -1.51346 6.22671
head 10.4599 -0.92676 4.47569
rclavicle 6.36111e-015 -1.86858e-014
rhumerus 7.07844 11.5067 -71.2448
rradius 122.798
rwrist 33.1036
rhand 8.49498 -30.8795
rfingers 7.12502
rthumb 33.6975 -57.7299
lclavicle 6.36111e-015 -1.86858e-014
lhumerus -7.11774 -5.49396 85.6091
lradius 129.112
lwrist -28.0343
lhand -0.0723214 -6.77419
lfingers 7.12502
lthumb 25.5211 21.5365
rfemur -24.6229 -12.6707 23.9985
rtibia 77.1406
rfoot 9.59655 -17.4399
rtoes 30.8983
lfemur -16.9429 2.64355 -10.3636
ltibia 52.7277
lfoot 15.8082 -4.4958
ltoes 1.11541
1942
root -8.1095 28.5711 -8.91862 306.607 83.826 -9.73707
lowerback 17.8444 1.53727 0.355212
upperback 0.50778 2.54948 3.39684
thorax -9.63183 1.33579 2.83011
lowerneck -0.0856987 -2.15657 -8.42605
upperneck 30.9572 -2.05342 4.24976
head 9.98471 -0.879177 2.92017
rclavicle 2.3059e-014 1.98785e-015
rhumerus 6.37127 11.0269 -72.2153
rradius 122.681
rwrist 32.897
rhand 8.21072 -30.1451
rfingers 7.12502
rthumb 33.4274 -57.0541
lclavicle 2.3059e-014 1.98785e-015
lhumerus -7.22126 -5.44557 84.1207
lradius 128.858
lwrist -27.3444
lhand 0.79926 -7.3175
lfingers 7.12502
lthumb 26.3557 20.871
rfemur -24.4398 -12.6274 24.9904
rtibia 76.7663
rfoot 8.77242 -18.0601
rtoes 34.0188
lfemur -16.7763 2.64811 -9.56868
ltibia 52.1849
lfoot 16.1229 -4.783
ltoes 3.07912
1943
root -8.05799 28.5759 -8.93284 307.88 84.275 -8.18082
lowerback 17.7677 1.45791 0.0341285
upperback 0.60998 2.36624 3.32208
thorax -9.47554 1.2599 2.98026
lowerneck -0.69027 -2.05474 -10.5769
upperneck 31.9215 -1.92768 5.49699
head 10.5045 -0.930993 3.79458
rclavicle -1.15295e-014 5.56597e-015
rhumerus 6.55448 11.3973 -71.7963
rradius 122.447
rwrist 32.9546
rhand 7.68685 -31.3012
rfingers 7.12502
rthumb 32.9292 -58.3163
lclavicle -1.15295e-014 5.56597e-015
lhumerus -7.05934 -4.50509 83.9494
lradius 128.758
lwrist -25.484
lhand 3.1303 -8.54876
lfingers 7.12502
lthumb 28.5851 19.2856
rfemur -24.6106 -12.8124 24.615
rtibia 76.5434
rfoot 8.17062 -18.3964
rtoes 34.5435
lfemur -16.8594 3.01431 -10.0726
ltibia 51.7166
lfoot 16.3275 -4.75491
ltoes 4.51331
1944
root -8.02013 28.6 -8.91571 309.951 84.5918 -5.98209
lowerback 17.482 1.43745 -0.872797
upperback 0.604989 2.2062 3.82336
thorax -9.36955 1.24032 4.09371
lowerneck -0.425066 -1.90931 -12.0762
upperneck 32.1595 -1.58002 5.6155
head 10.5505 -0.927729 4.1418
rclavicle -7.55382e-015 -9.54166e-015
rhumerus 6.85388 12.1997 -70.6743
rradius 122.146
rwrist 32.4444
rhand 7.43345 -30.83
rfingers 7.12502
rthumb 32.6882 -57.8955
lclavicle -7.55382e-015 -9.54166e-015
lhumerus -7.38694 -2.48952 84.4223
lradius 128.455
lwrist -26.2457
lhand 5.4456 -13.2104
lfingers 7.12502
lthumb 30.7949 14.2299
rfemur -24.7712 -12.6623 24.6196
rtibia 76.1215
rfoot 8.09373 -18.838
rtoes 31.7027
lfemur -16.9859 3.18344 -10.4373
ltibia 51.1963
lfoot 16.6443 -4.65063
ltoes 5.54298
1945
root -7.96389 28.6235 -8.96925 301.37 84.6724 -14.7416
lowerback 16.7529 0.887696 0.105268
upperback 0.411057 1.67349 3.94513
thorax -9.1046 0.943941 3.8037
lowerneck 0.703652 -1.90361 -10.5593
upperneck 31.5025 -1.50929 4.35683
head 10.0532 -0.839249 3.39546
rclavicle 9.54166e-015 3.97569e-016
rhumerus 6.78648 12.8349 -70.2579
rradius 121.946
rwrist 31.9727
rhand 7.20698 -31.5519
rfingers 7.12502
rthumb 32.4727 -58.6619
lclavicle 9.54166e-015 3.97569e-016
lhumerus -8.03869 -3.18798 84.4989
lradius 128.194
lwrist -26.3754
lhand 3.65427 -11.1172
lfingers 7.12502
lthumb 29.0856 16.6318
rfemur -25.1702 -13.6079 25.0809
rtibia 75.7506
rfoot 8.28236 -18.6895
rtoes 29.534
lfemur -17.7336 2.23551 -10.3376
ltibia 50.9112
lfoot 16.9839 -4.22659
ltoes 5.29218
1946
root -7.90046 28.6465 -8.97641 305.11 84.4406 -10.1344
lowerback 16.9368 1.01445 0.0741379
upperback 0.460032 1.7922 3.54684
thorax -9.14797 0.987826 3.35639
lowerneck 1.93877 -2.05826 -8.38802
upperneck 31.0299 -1.78051 3.46164
head 9.62244 -0.796498 2.66399
rclavicle 6.36111e-015 2.78299e-014
rhumerus 6.12011 12.601 -70.725
rradius 121.783
rwrist 31.538
rhand 6.99135 -31.0344
rfingers 7.12502
rthumb 32.2675 -58.1863
lclavicle 6.36111e-015 2.78299e-014
lhumerus -8.95231 -5.69112 84.5516
lradius 127.604
lwrist -28.9622
lhand -3.01755 -3.63492
lfingers 7.12502
lthumb 22.6971 25.0502
rfemur -24.287 -13.2635 24.9532
rtibia 75.3858
rfoot 7.58316 -18.9578
rtoes 28.9487
lfemur -16.9053 2.78142 -10.4239
ltibia 50.6067
lfoot 16.9613 -4.58715
ltoes 3.3224
